<svg id="Layer_1" data-name="Layer 1" xmlns="http://www.w3.org/2000/svg" viewBox="0 0 251.73 251.69"><defs><style>.cls-1{fill:#d6dcde;}.cls-2{fill:#fff;}.cls-3{fill:#10b3da;}.cls-4{fill:#383838;}</style></defs><title>computer-analysis-chart-analysis-icon</title><polygon class="cls-1" points="194.48 210.72 228.36 244.61 244 245.91 247.91 234.18 213.59 196.39 194.48 210.72"/><polygon class="cls-2" points="162.99 247.65 142.79 189 106.81 191.52 85.19 243.3 162.99 247.65"/><rect class="cls-2" x="7.91" y="40.44" width="237.18" height="156.38"/><rect class="cls-1" x="5.96" y="172.5" width="238.91" height="26.93"/><rect class="cls-3" x="39.84" y="6.13" width="170.71" height="31.28"/><ellipse class="cls-2" cx="163.53" cy="154.72" rx="65.35" ry="60.2"/><path class="cls-4" d="M230.76,33.56h-4.2V42h4.2a12.58,12.58,0,0,1,12.58,12.58V167.79h-8.43v8.39h8.43v8.39A12.63,12.63,0,0,1,237,195.48l4.19,7.27a21,21,0,0,0,10.53-18.18v-130A21,21,0,0,0,230.76,33.56Z"/><path class="cls-4" d="M0,184.57a21,21,0,0,0,21,21h77.9L85.19,243.3H71.35v8.39H180.41V243.3H166.57l-5.09-14-7.89,2.87,4.06,11.15H94.12l14.74-40.51a4.26,4.26,0,0,0-.51-3.85,4.2,4.2,0,0,0-3.44-1.78H21A12.59,12.59,0,0,1,8.43,184.57l0-8.39H88.13v-8.39H8.39l0-113.26A12.59,12.59,0,0,1,21,42h4.19V33.56H21a21,21,0,0,0-21,21L0,172Z"/><path class="cls-4" d="M218.17,96.48V21a21,21,0,0,0-21-21H54.57a21,21,0,0,0-21,21V159.4H42V21A12.58,12.58,0,0,1,54.57,8.39H197.2A12.58,12.58,0,0,1,209.78,21V96.48Z"/><path class="cls-4" d="M54.57,16.78H63v8.39H54.57Z"/><path class="cls-4" d="M71.35,16.78h8.39v8.39H71.35Z"/><path class="cls-4" d="M88.13,16.78h8.39v8.39H88.13Z"/><path class="cls-4" d="M54.57,146.82H71.35v8.39H54.57Z"/><path class="cls-4" d="M79.74,146.82h8.39v8.39H79.74Z"/><path class="cls-4" d="M54.57,33.56H197.2V42H54.57Z"/><path class="cls-4" d="M54.57,50.34H71.35v8.39H54.57Z"/><circle class="cls-3" cx="162.34" cy="156.43" r="45.61"/><path class="cls-4" d="M217.64,194.89a67.37,67.37,0,1,0-24.78,20.64L224.33,247A16.06,16.06,0,0,0,247,224.27Zm-54,19.05a58.73,58.73,0,1,1,58.73-58.73A58.73,58.73,0,0,1,163.64,213.94Zm77.45,27.11a7.89,7.89,0,0,1-10.85,0l-29.78-29.79a67.41,67.41,0,0,0,11.8-9.91l28.84,28.84a7.73,7.73,0,0,1,2.25,5.43A7.64,7.64,0,0,1,241.09,241.05Z"/><path class="cls-4" d="M163.64,104.87A50.34,50.34,0,1,0,214,155.21,50.34,50.34,0,0,0,163.64,104.87Zm0,92.29a41.95,41.95,0,1,1,42-41.95A41.95,41.95,0,0,1,163.64,197.16Z"/><path class="cls-4" d="M156.47,131.08a25.17,25.17,0,0,1,7.17-1v-8.39a33.51,33.51,0,0,0-9.59,1.39Z"/><path class="cls-4" d="M130.08,155.21h8.39a25.18,25.18,0,0,1,10.79-20.66l-4.8-6.88A33.62,33.62,0,0,0,130.08,155.21Z"/><rect class="cls-3" x="103.04" y="73.02" width="14.33" height="31.93"/><rect class="cls-3" x="67.86" y="101.69" width="14.33" height="31.93"/><rect class="cls-3" x="135.62" y="65.53" width="14.33" height="12.13"/><rect class="cls-3" x="169.71" y="53.8" width="14.33" height="22.2"/><path class="cls-4" d="M88.13,134.23V100.68a4.19,4.19,0,0,0-4.19-4.2H67.16a4.2,4.2,0,0,0-4.2,4.2V130H54.57v8.39H88.13ZM79.74,130H71.35V104.87h8.39Z"/><path class="cls-4" d="M121.69,92.29v-21a4.2,4.2,0,0,0-4.19-4.19H100.72a4.2,4.2,0,0,0-4.2,4.19v37.76h8.39V75.51h8.39V92.29Z"/><path class="cls-4" d="M155.25,79.7V67.12a4.2,4.2,0,0,0-4.2-4.2H134.27a4.2,4.2,0,0,0-4.19,4.2V83.9h8.39V71.31h8.39V79.7Z"/><path class="cls-4" d="M188.81,79.7V54.53a4.2,4.2,0,0,0-4.2-4.19H167.83a4.2,4.2,0,0,0-4.19,4.19V79.7H172v-21h8.39v21Z"/></svg>